<svg width="849" height="372" viewBox="0 0 849 372" fill="none" xmlns="http://www.w3.org/2000/svg">
<path d="M30 77.5H74V290.5H30V77.5Z" fill="white"/>
<path d="M243.5 237.5L271.5 199L342.146 295.312H285.5L243.5 237.5Z" fill="white"/>
<path d="M268.5 77L324 77L172.5 292L171.5 215.5L268.5 77Z" fill="white"/>
<path d="M30 95.5126L74 77.5L199 253L172.5 292L30 95.5126Z" fill="white"/>
<path d="M124.935 77.1654L179.5 77.1654L252.5 178L225.5 216L124.935 77.1654Z" fill="white"/>
<path d="M404.35 168V76.56H429.623L470.263 157.332L464.04 158.856V76.56H483.09V168H457.817L417.177 87.228L423.4 85.704V168H404.35Z" fill="white"/>
<path d="M540.078 169.27C533.305 169.27 527.04 168.127 521.282 165.841C515.61 163.555 510.657 160.338 506.423 156.189C502.275 151.956 499.015 146.96 496.644 141.203C494.358 135.361 493.215 128.926 493.215 121.899C493.215 112.586 495.205 104.458 499.184 97.515C503.164 90.4877 508.667 85.0267 515.694 81.132C522.806 77.2373 530.892 75.29 539.951 75.29C549.18 75.29 557.308 77.2373 564.335 81.132C571.363 85.0267 576.866 90.4877 580.845 97.515C584.909 104.542 586.941 112.713 586.941 122.026C586.941 128.969 585.756 135.361 583.385 141.203C581.099 146.96 577.84 151.956 573.606 156.189C569.458 160.338 564.505 163.555 558.747 165.841C553.075 168.127 546.852 169.27 540.078 169.27ZM539.951 153.776C545.285 153.776 549.984 152.421 554.048 149.712C558.112 147.003 561.287 143.277 563.573 138.536C565.944 133.71 567.129 128.122 567.129 121.772C567.129 115.507 565.986 110.046 563.7 105.389C561.414 100.732 558.239 97.134 554.175 94.594C550.111 92.054 545.37 90.784 539.951 90.784C534.617 90.784 529.918 92.054 525.854 94.594C521.79 97.134 518.615 100.732 516.329 105.389C514.128 109.961 513.027 115.422 513.027 121.772C513.027 128.207 514.17 133.837 516.456 138.663C518.742 143.404 521.917 147.13 525.981 149.839C530.045 152.464 534.702 153.776 539.951 153.776Z" fill="white"/>
<path d="M620.469 168L587.703 76.56H608.023L633.042 152.76H630.629L655.775 76.56H675.079L642.313 168H620.469Z" fill="white"/>
<path d="M665.218 168L697.984 76.56H714.748L684.649 168H665.218ZM732.274 168L702.302 76.56H719.828L752.594 168H732.274ZM682.49 132.567H733.798V147.807H682.49V132.567Z" fill="white"/>
<path d="M404.922 295V203.56H415.717L468.168 280.522L466.644 280.776V203.56H476.55V295H465.755L413.304 218.038L414.828 217.784V295H404.922Z" fill="white"/>
<path d="M498.436 295V203.56H508.85V295H498.436ZM503.77 295V285.856H559.65V295H503.77ZM503.77 251.947V242.803H555.078V251.947H503.77ZM503.77 212.704V203.56H558.634V212.704H503.77Z" fill="white"/>
<path d="M635.876 295L606.158 252.201L572.503 203.56H584.695L648.068 295H635.876ZM607.555 244.454L636.765 203.56H648.068L613.143 252.709L607.555 244.454ZM611.619 253.217L581.901 295H570.598L606.031 244.962L611.619 253.217Z" fill="white"/>
<path d="M695.938 296.27C684.931 296.27 676.337 292.926 670.157 286.237C664.061 279.464 661.013 270.023 661.013 257.916V203.56H671.427V258.424C671.427 267.568 673.543 274.595 677.777 279.506C682.01 284.417 688.064 286.872 695.938 286.872C703.981 286.872 710.119 284.459 714.353 279.633C718.586 274.722 720.703 267.653 720.703 258.424V203.56H731.117V258.043C731.117 270.066 728.026 279.464 721.846 286.237C715.665 292.926 707.029 296.27 695.938 296.27Z" fill="white"/>
<path d="M782.804 296.143C772.136 296.143 763.627 293.518 757.277 288.269C751.011 283.02 747.328 275.527 746.228 265.79H756.388C757.319 272.817 759.986 278.109 764.389 281.665C768.791 285.221 774.887 286.999 782.677 286.999C789.281 286.999 794.234 285.771 797.536 283.316C800.922 280.776 802.616 277.093 802.616 272.267C802.616 268.118 801.473 264.816 799.187 262.361C796.901 259.906 793.345 257.874 788.519 256.265L773.152 250.931C765.362 248.222 759.605 244.962 755.88 241.152C752.154 237.257 750.292 232.347 750.292 226.42C750.292 221.509 751.519 217.276 753.975 213.72C756.43 210.079 759.901 207.243 764.389 205.211C768.876 203.179 774.083 202.163 780.01 202.163C789.154 202.163 796.477 204.576 801.981 209.402C807.484 214.143 810.659 220.917 811.506 229.722H801.346C800.245 223.372 797.959 218.715 794.488 215.752C791.101 212.789 786.19 211.307 779.756 211.307C773.66 211.307 768.918 212.535 765.532 214.99C762.145 217.445 760.452 220.917 760.452 225.404C760.452 229.214 761.637 232.262 764.008 234.548C766.378 236.834 770.061 238.824 775.057 240.517L791.44 246.232C798.552 248.687 803.886 252.032 807.442 256.265C810.998 260.414 812.776 265.705 812.776 272.14C812.776 279.76 810.151 285.687 804.902 289.92C799.737 294.069 792.371 296.143 782.804 296.143Z" fill="white"/>
</svg>
